/* XPM */
static char * classic_xpm[] = {
"256 56 15 1",
" 	c #000000",
">	c #000000",
"(	c #000000",
"%	c #000000",
".	c #000080",
"+	c #800000",
"@	c #0000FF",
"#	c #FF0000",
"&	c #008000",
"*	c #008080",
"=	c #FF4040",
"-	c #808080",
",	c #C0C0C0",
"'	c #FFFF00",
")	c #FFFFFF",
" >(%.+@#&*=-,'))------------------------------------------------------------------------------------------------------------------------------------------------------------------------------------------------))))))))))))))),))))))))))))))),))))))))))))))),",
"                -,,,,,,,,,,,,,,,-,,,,,,,,,,,,,,,-,,,,,,,,,,,,,,,-,,,,,,,,,,,,,,,-,,,,,,,,,,,,,,,-,,,,,,,,,,,,,,,-,,,,,,,,,,,,,,,-,,,,,,,,,,,,,,,-,,,,,,,,,,,,,,,-,,,,,,,,,,,,,,,-###############-,,,,,,,,,,,,,,,)))))))))))))),-)))))))))))))),-)))))))))))))),-",
"                -,,,,,,,,,,,,,,,-,,,,,,,,,,,,,,,-,,,,,,,,,,,,,,,-,,,,,,,,,,,,,,,-,,,,,,,,,,,,,,,-,,,,,,,,,,,,,,,-,,,,,,,,,,,,,,,-,,,,,,,,,,,,,,,-,,,,,,,,,,,,,,,-,,,,,,, ,,,,,,,-####### #######-,,,,,,, ,,,,,,,)),,,,,,,,,,,,--)),,,,,,,,,,,,--)),,,,,,,,,,,,--",
"                -,,,,,,,,,,,,,,,-,,,,,,,@@,,,,,,-,,,&&&&&&&&,,,,-,,#########,,,,-,,,,...,...,,,,-,,++++++++++,,,-,,,********,,,,-,,          ,,,-,,,--------,,,,-,,,,,,, ,,,,,,,-####### #######-,##,,,, ,,,,##,)),,,,,,,,,,,,--)),,,,,##,,,,,--)),,,,    ,,,,--",
"                -,,,,,,,,,,,,,,,-,,,,,,@@@,,,,,,-,,&&&&&&&&&&,,,-,,##########,,,-,,,,...,...,,,,-,,++++++++++,,,-,,*********,,,,-,,          ,,,-,,----------,,,-,,, ,     , ,,,-### #     # ###-,,##,     ,##,,)),,,,,,,,,,,,--)),,,####,,,,,--)),,,  ,,  ,,,--",
"                -,,,,,,,,,,,,,,,-,,,,,@@@@,,,,,,-,,&&&,,,,&&&,,,-,,,,,,,,,###,,,-,,,...,,...,,,,-,,+++,,,,,,,,,,-,,***,,,,,,,,,,-,,,,,,,,,   ,,,-,,---,,,,---,,,-,,,,       ,,,,-####       ####-,,,##     ##,,,)),,,,,,,,,,,,--)),,#####,,,,,--)),,,  ,,  ,,,--",
"                -,,,,,,,,,,,,,,,-,,,,@@@@@,,,,,,-,,,,,,,,,&&&,,,-,,,,,,,,,###,,,-,,,...,,...,,,,-,,+++,,,,,,,,,,-,,***,,,,,,,,,,-,,,,,,,,,   ,,,-,,---,,,,---,,,-,,,  ))     ,,,-###  ))     ###-,,, ##)  ## ,,,)),,,,,,,,,,,,--)),,,####,,,,,--)),,,,,,,  ,,,--",
"                -,,,,,,,,,,,,,,,-,,,,,,@@@,,,,,,-,,,,,,,&&&&,,,,-,,,,,######,,,,-,,..........,,,-,,+++++++++,,,,-,,*********,,,,-,,,,,,,,   ,,,,-,,,--------,,,,-,,,  ))     ,,,-###  ))     ###-,,,  ## ##  ,,,)),,,,,,,,,,,,--)),,,,,##,,,,,--)),,,,,,  ,,,,--",
"   ))    )))))) -,,,,,,,,,,,,,,,-,,,,,,@@@,,,,,,-,,,,,&&&&&,,,,,-,,,,,######,,,,-,,..........,,,-,,++++++++++,,,-,,**********,,,-,,,,,,,,   ,,,,-,,,--------,,,,-,             ,-#             #-,     ###     ,)),,,,,,,,,,,,--)),,,,,, ,,,,,--)),,,,,  ,,,,,--",
" ) )) )  )    ) -,,,,,,,,,,,,,,,-,,,,,,@@@,,,,,,-,,,&&&&&,,,,,,,-,,,,,,,,,###,,,-,,,,,,,,...,,,,-,,,,,,,,,+++,,,-,,***,,,,***,,,-,,,,,,,   ,,,,,-,,---,,,,---,,,-,,,         ,,,-###         ###-,,,   ###   ,,,)),,,,,,,,,,,,--)),,,,,, ,,,,,--)),,,,,  ,,,,,--",
"  ))))   )    ) -,,,,,,,,,,,,,,,-,,,,,,@@@,,,,,,-,,&&&&,,,,,,,,,-,,,,,,,,,###,,,-,,,,,,,,...,,,,-,,,,,,,,,+++,,,-,,***,,,,***,,,-,,,,,,,   ,,,,,-,,---,,,,---,,,-,,,         ,,,-###         ###-,,,  ## ##  ,,,)),,,,,,,,,,,,--)),,,,    ,,,,--)),,,,,,,,,,,,--",
"))) ))))  )  )  -,,,,,,,,,,,,,,,-,,,,@@@@@@@,,,,-,,&&&&&&&&&&,,,-,,##########,,,-,,,,,,,,...,,,,-,,++++++++++,,,-,,**********,,,-,,,,,,   ,,,,,,-,,----------,,,-,,,,       ,,,,-####       ####-,,,,##   ##,,,,)),,,,,,,,,,,,--)),,        ,,--)),,,,,  ,,,,,--",
"))))))))   ))   -,,,,,,,,,,,,,,,-,,,,@@@@@@@,,,,-,,&&&&&&&&&&,,,-,,#########,,,,-,,,,,,,,...,,,,-,,+++++++++,,,,-,,,********,,,,-,,,,,,   ,,,,,,-,,,--------,,,,-,,, ,     , ,,,-### #     # ###-,,,##     ##,,,)),,,,,,,,,,,,--)),,        ,,--)),,,,,  ,,,,,--",
"  ))))    ))))  -,,,,,,,,,,,,,,,-,,,,,,,,,,,,,,,-,,,,,,,,,,,,,,,-,,,,,,,,,,,,,,,-,,,,,,,,,,,,,,,-,,,,,,,,,,,,,,,-,,,,,,,,,,,,,,,-,,,,,,,,,,,,,,,-,,,,,,,,,,,,,,,-,,,,,,, ,,,,,,,-####### #######-,,##,,, ,,,##,,)),,,,,,,,,,,,--)),,,,,,,,,,,,--)),,,,,,,,,,,,--",
" ) )) )  )))))) -,,,,,,,,,,,,,,,-,,,,,,,,,,,,,,,-,,,,,,,,,,,,,,,-,,,,,,,,,,,,,,,-,,,,,,,,,,,,,,,-,,,,,,,,,,,,,,,-,,,,,,,,,,,,,,,-,,,,,,,,,,,,,,,-,,,,,,,,,,,,,,,-,,,,,,, ,,,,,,,-####### #######-,##,,,, ,,,,##,),--------------),--------------),--------------",
"   ))    )))))) -,,,,,,,,,,,,,,,-,,,,,,,,,,,,,,,-,,,,,,,,,,,,,,,-,,,,,,,,,,,,,,,-,,,,,,,,,,,,,,,-,,,,,,,,,,,,,,,-,,,,,,,,,,,,,,,-,,,,,,,,,,,,,,,-,,,,,,,,,,,,,,,-,,,,,,,,,,,,,,,-###############-,,,,,,,,,,,,,,,,---------------,---------------,---------------",
" * * * * * * * *-------------------------------------------------------------------------------------------------------------------------------------------------                                               ))))))))))))))),))))))))))))))),))))))))))))))),",
"* * * * * * * * -'''''''''''''''-'''''''''''''''-'''''''''''''''-'''''''''''''''-'''''''''''''''-'''''''''''''''-'''''''''''''''-'''''''''''''''-'''''''''''''''-                                               )))))))))))))),-)))))))))))))),-)))))))))))))),-",
" * * * * * * * *-'''''''''''''''-'''''''''''''''-'''''''''''''''-'''''''''''''''-'''''''''''''''-'''''''''''''''-'''''''''''''''-'''''''''''''''-'''''''''''''''-                                               ))''''''''''''--))''''''''''''--))''''''''''''--",
"* * * * * * * * -'''''''''''''''-'''''''@@''''''-'''&&&&&&&&''''-''#########''''-''''...'...''''-''++++++++++'''-'''********''''-''          '''-'''--------''''-                                               ))''''''''''''--))'''''##'''''--))''''    ''''--",
" * * * * * * * *-'''''''''''''''-''''''@@@''''''-''&&&&&&&&&&'''-''##########'''-''''...'...''''-''++++++++++'''-''*********''''-''          '''-''----------'''-                                               ))''''''''''''--))'''####'''''--))'''  ''  '''--",
"* * * * * * * * -'''''''''''''''-'''''@@@@''''''-''&&&''''&&&'''-'''''''''###'''-'''...''...''''-''+++''''''''''-''***''''''''''-'''''''''   '''-''---''''---'''-                                               ))''''''''''''--))''#####'''''--))'''  ''  '''--",
" * * * * * * * *-'''''''''''''''-''''@@@@@''''''-'''''''''&&&'''-'''''''''###'''-'''...''...''''-''+++''''''''''-''***''''''''''-'''''''''   '''-''---''''---'''-                                               ))''''''''''''--))'''####'''''--))'''''''  '''--",
"* * * * * * * * -'''''''''''''''-''''''@@@''''''-'''''''&&&&''''-'''''######''''-''..........'''-''+++++++++''''-''*********''''-''''''''   ''''-'''--------''''-                                               ))''''''''''''--))'''''##'''''--))''''''  ''''--",
" * * * * * * * *-'''''''''''''''-''''''@@@''''''-'''''&&&&&'''''-'''''######''''-''..........'''-''++++++++++'''-''**********'''-''''''''   ''''-'''--------''''-                                               ))''''''''''''--))'''''' '''''--))'''''  '''''--",
"* * * * * * * * -'''''''''''''''-''''''@@@''''''-'''&&&&&'''''''-'''''''''###'''-''''''''...''''-'''''''''+++'''-''***''''***'''-'''''''   '''''-''---''''---'''-                                               ))''''''''''''--))'''''' '''''--))'''''  '''''--",
" * * * * * * * *-'''''''''''''''-''''''@@@''''''-''&&&&'''''''''-'''''''''###'''-''''''''...''''-'''''''''+++'''-''***''''***'''-'''''''   '''''-''---''''---'''-                                               ))''''''''''''--))''''    ''''--))''''''''''''--",
"* * * * * * * * -'''''''''''''''-''''@@@@@@@''''-''&&&&&&&&&&'''-''##########'''-''''''''...''''-''++++++++++'''-''**********'''-''''''   ''''''-''----------'''-                                               ))''''''''''''--))''        ''--))'''''  '''''--",
" * * * * * * * *-'''''''''''''''-''''@@@@@@@''''-''&&&&&&&&&&'''-''#########''''-''''''''...''''-''+++++++++''''-'''********''''-''''''   ''''''-'''--------''''-                                               ))''''''''''''--))''        ''--))'''''  '''''--",
"* * * * * * * * -'''''''''''''''-'''''''''''''''-'''''''''''''''-'''''''''''''''-'''''''''''''''-'''''''''''''''-'''''''''''''''-'''''''''''''''-'''''''''''''''-                                               ))''''''''''''--))''''''''''''--))''''''''''''--",
" * * * * * * * *-'''''''''''''''-'''''''''''''''-'''''''''''''''-'''''''''''''''-'''''''''''''''-'''''''''''''''-'''''''''''''''-'''''''''''''''-'''''''''''''''-                                               ),--------------),--------------),--------------",
"* * * * * * * * -'''''''''''''''-'''''''''''''''-'''''''''''''''-'''''''''''''''-'''''''''''''''-'''''''''''''''-'''''''''''''''-'''''''''''''''-'''''''''''''''-                                               ,---------------,---------------,---------------",
" ,,,,,,,,,,,,,,,,,,,,,,* * * * * * * * * * * * *                                                                                                                                                                                                                ",
",,,,,,,,,,,,,,,,,,,,,,,,* * * * * * * * * * * *                   ====     ==     ====   =====     ===   =====    ====   ======   ====    ====                                                                                                                  ",
",,,,,,,,,,,,,,,,,,,,,,,, * * * * * * * * * * * *   ==            ==  ==   ===    ==  ==      ==   ====   ==      ==          ==  ==  ==  ==  ==                                                                                                                 ",
",,,,,,,,,,,,,,,,,,,,,,,,* * * * * * * * * * * *                  ==  ==    ==        ==    ===   == ==   =====   =====      ==    ====   ==  ==                                                                                                                 ",
",,,,,,,,,,,,,,,,,,,,,,,, * * ,,,,,,,,,,,,,,* * *         ======  ==  ==    ==     ====       ==  ======      ==  ==  ==     ==   ==  ==   =====                                                                                                                 ",
",,,,,,------------,,,,,,* * ,,,,,,,,,,,,,,,,* *    ==            ==  ==    ==    ==          ==     ==       ==  ==  ==    ==    ==  ==      ==                                                                                                                 ",
",,,,,------------,),,,,, * *,,-----------,,, * *                  ====    ====   ======  =====      ==   =====    ====     ==     ====    ====                                                                                                                  ",
",,,,,-----------,)),,,,,* * ,,-          ),,* *                                                                                                                                                                                                                 ",
",,,,,---        ))),,,,, * *,,-          ),, * *                                                                                                                                                                                                                ",
",,,,,---        ))),,,,,* * ,,-          ),,* *                                                                                                                                                                                                                 ",
",,,,,---        ))),,,,, * *,,-          ),, * *                                                                                                                                                                                                                ",
",,,,,---        ))),,,,,* * ,,-          ),,* *                                                                                                                                                                                                                 ",
",,,,,---        ))),,,,, * *,,-          ),, * *                                                                                                                                                                                                                ",
",,,,,---        ))),,,,,* * ,,-          ),,* *                                                                                                                                                                                                                 ",
",,,,,---        ))),,,,, * *,,-          ),, * *                                                                                                                                                                                                                ",
",,,,,---        ))),,,,,* * ,,-          ),,* *                                                                                                                                                                                                                 ",
",,,,,--,))))))))))),,,,, * *,,-          ),, * *                                                                                                                                                                                                                ",
",,,,,-,)))))))))))),,,,,* * ,,,))))))))))),,* *                                                                                                                                                                                                                 ",
",,,,,,)))))))))))),,,,,, * *,,,,,,,,,,,,,,,, * *                                                                                                                                                                                                                ",
",,,,,,,,,,,,,,,,,,,,,,,,* * *,,,,,,,,,,,,,, * *                                                                                                                                                                                                                 ",
",,,,,,,,,,,,,,,,,,,,,,,, * * * * * * * * * * * *                                                                                                                                                                                                                ",
",,,,,,,,,,,,,,,,,,,,,,,,* * * * * * * * * * * *                                                                                                                                                                                                                 ",
",,,,,,,,,,,,,,,,,,,,,,,, * * * * * * * * * * * *                                                                                                                                                                                                                ",
"*,,,,,,,,,,,,,,,,,,,,,, * * * * * * * * * * * *                                                                                                                                                                                                                 "};
