/* XPM */
static char * mines_xpm[] = {
"256 56 15 1",
" 	c #000000",
".	c #007326",
"+	c #522601",
"@	c #727471",
"#	c #1B53FF",
"$	c #009E56",
"%	c #00BA00",
"&	c #FF2323",
"*	c #00BAFF",
"=	c #FF1A9C",
"-	c #FF9A22",
";	c #FFE001",
">	c #B9BBB8",
",	c #DE4D4C",
"'	c #FFFFFF",
" .+@#$%&*=-;>,' .++++++..++++++..++++++..++++++..++++++..++++++..++++++..++++++..++++++..++++++..++++++..++++++..++++++..++++++..++++++..++++++..++++++..++++++.    ....    ........    ....      ....    ....  +++>@++++++>@+++++++&+++++++&+++$$$$$$$$$$$$$$$$",
"                +++##++++++##+++++%%%%++++%%%%++++&&&&++++&&&&++++++**++++++**+++=====+++=====++++;;;;++++;;;;+++''''''++''''''+++    ++++    ++++++++++++++++++ &&&     &&&        ;;;     ;;;  & .. &  & .. & +>+>@+@++>+>@+@++&&+&&+&+&&+&&+&$$$$$$$$$$$$$$$$",
"                ++###+++++###++++%%++%%++%%++%%++++++&&++++++&&++++***+++++***+++==++++++==++++++;;++++++;;++++++''++''++''++''++  ++  ++  ++  +++++++++++++++++. &&&&& . &&&&&  ;;;;; . ;;;;; .. &  & .. &  & .++>@@@++++>@@@+++&-&--&++&-&--&+$$$$$$$$$$$$$$$$",
"                +++##++++++##++++++++%%++++++%%++++&&&+++++&&&++++****++++****+++=====+++=====+++;;;;;+++;;;;;++++++''++++++''++++    ++++    ++++++++++++++++++. &&&  .. &&&  ..  ;;; ..  ;;; ... && .... && ..>>@@@@>>>>@@@@>>++-;;&&+++-;;&&+$$$$$$$$$$$$$$$$",
"                +++##++++++##+++++%%%%++++%%%%+++++++&&++++++&&++**+**+++**+**+++++++==++++++==++;;++;;++;;++;;++++''++++++''++++  ++  ++  ++  +++++++++++++++++..   .....   ......   .....   .... && .... && ..@@@@'@@@@@@@'@@@+&-;;-&++&-;;-&+$$$$$$$$$$$$$$$$",
"                +++##++++++##++++%%++++++%%++++++&&++&&++&&++&&++******++******++==++==++==++==++;;++;;++;;++;;++++''++++++''++++  ++  ++  ++  +++++++++++++++++.. ....... .......... ....... ... &  & .. &  & .++>@@@++++>@@@++&-&--&&+&-&--&&+$$$$$$$$$$$$$$$$",
"                ++####++++####+++%%%%%%++%%%%%%+++&&&&++++&&&&++++++**++++++**++++====++++====++++;;;;++++;;;;+++++''++++++''+++++    ++++    ++++++++++++++++++... ....... ........ ....... ... & .. &  & .. & +>+>@+@++>+>@+@+&&+&&++&&&+&&++&$$$$$$$$$$$$$$$$",
"                .++++++..++++++..++++++..++++++..++++++..++++++..++++++..++++++..++++++..++++++..++++++..++++++..++++++..++++++..++++++..++++++..++++++..++++++.... ....... ........ ....... ...  ....    ....  +++>@++++++>@+++++++&+++++++&+++$$$$$$$$$$$$$$$$",
"   ''    '''''' .++++++..++++++..++++++..++++++..++++++..++++++..++++++..++++++..++++++..++++++..++++++..++++++..++++++..++++++..++++++..++++++..++++++..++++++.    ....    ........    ....      ....    ....  +++>@++++++>@+++++++&+++++++&+++$$$$$$$$$$$$$$$$",
" ' '' '  '    ' +++##++++++##+++++%%%%++++%%%%++++&&&&++++&&&&++++++**++++++**+++=====+++=====++++;;;;++++;;;;+++''''''++''''''+++    ++++    ++++++++++++++++++ &&&     &&&        ;;;     ;;;  & .. &  & .. & +>+>@+@++>+>@+@++&&+&&+&+&&+&&+&$$$$$$$$$$$$$$$$",
"  ''''   '    ' ++###+++++###++++%%++%%++%%++%%++++++&&++++++&&++++***+++++***+++==++++++==++++++;;++++++;;++++++''++''++''++''++  ++  ++  ++  +++++++++++++++++. &&&&& . &&&&&  ;;;;; . ;;;;; .. &  & .. &  & .++>@@@++++>@@@+++&-&--&++&-&--&+$$$$$$$$$$$$$$$$",
"''' ''''  '  '  +++##++++++##++++++++%%++++++%%++++&&&+++++&&&++++****++++****+++=====+++=====+++;;;;;+++;;;;;++++++''++++++''++++    ++++    ++++++++++++++++++. &&&  .. &&&  ..  ;;; ..  ;;; ... && .... && ..>>@@@@>>>>@@@@>>++-;;&&+++-;;&&+$$$$$$$$$$$$$$$$",
"''''''''   ''   +++##++++++##+++++%%%%++++%%%%+++++++&&++++++&&++**+**+++**+**+++++++==++++++==++;;++;;++;;++;;++++''++++++''++++  ++  ++  ++  +++++++++++++++++..   .....   ......   .....   .... && .... && ..@@@@'@@@@@@@'@@@+&-;;-&++&-;;-&+$$$$$$$$$$$$$$$$",
"  ''''    ''''  +++##++++++##++++%%++++++%%++++++&&++&&++&&++&&++******++******++==++==++==++==++;;++;;++;;++;;++++''++++++''++++  ++  ++  ++  +++++++++++++++++.. ....... .......... ....... ... &  & .. &  & .++>@@@++++>@@@++&-&--&&+&-&--&&+$$$$$$$$$$$$$$$$",
" ' '' '  '''''' ++####++++####+++%%%%%%++%%%%%%+++&&&&++++&&&&++++++**++++++**++++====++++====++++;;;;++++;;;;+++++''++++++''+++++    ++++    ++++++++++++++++++... ....... ........ ....... ... & .. &  & .. & +>+>@+@++>+>@+@+&&+&&++&&&+&&++&$$$$$$$$$$$$$$$$",
"   ''    '''''' .++++++..++++++..++++++..++++++..++++++..++++++..++++++..++++++..++++++..++++++..++++++..++++++..++++++..++++++..++++++..++++++..++++++..++++++.... ....... ........ ....... ...  ....    ....  +++>@++++++>@+++++++&+++++++&+++$$$$$$$$$$$$$$$$",
"$$$$$$$$$$$$$$$$$$$$$$$$$$$$$$$$$$$$$$$$........*#.......-$-$-$$-$$$-$$$$$$-$$$-$$-$-$-$''''''''''''''''''''''''''''''''''''''''''''''''''''''''''''''''''''''''''''''''''''''''''''''''''''''''''''''''''''''''''''''''''''''''''''''''''''''''''''''''''''''''",
"$$....................................$$........*#......-$-----$-$-$-$-$$-$-$-$-$-----$-''''''''''''''''''''''''''''''''''''''''''''''''''''''''''''''''''''''''''''''''''''''''''''''''''''''''''''''''''''''''''''''''''''''''''''''''''''''''''''''''''''''''",
"$.............@......$...........$.....$........*##.....$-;;;;;------------------;;;;;-$''''''''''''''''''''''''''''''''''''''''''''''''''''''''''''''''''''''''''''''''''''''''''''''''''''''''''''''''''''''''''''''''''''''''''''''''''''''''''''''''''''''''",
"$.........$.............@...%......%.@.$........***#....--;---&-;-;-;-;--;-;-;-;-;---&--''''''''''''''''''''''''''''''''''''''''''''''''''''''''''''''''''''''''''''''''''''''''''''''''''''''''''''''''''''''''''''''''''''''''''''''''''''''''''''''''''''''''",
"$............%.....$..........$........$...##...***#....$-;- -&------------------;- -&-$''''''''''''''''''''''''''''''''''''''''''''''''''''''''''''''''''''''''''''''''''''''''''''''''''''''''''''''''''''''''''''''''''''''''''''''''''''''''''''''''''''''''",
"$...$.................%..........@.....$..#**#..*##.....--;---&-&&&&&&&&&&&&&&&&-;---&--''''''''''''''''''''''''''''''''''''''''''''''''''''''''''''''''''''''''''''''''''''''''''''''''''''''''''''''''''''''''''''''''''''''''''''''''''''''''''''''''''''''''",
"$.....%.....$......@.......$.......$...$###**###*#......$-;&&&&------------------;&&&&-$''''''''''''''''''''''''''''''''''''''''''''''''''''''''''''''''''''''''''''''''''''''''''''''''''''''''''''''''''''''''''''''''''''''''''''''''''''''''''''''''''''''''",
"$..@.....................@.............$*********#......$$-----$$$$$$$$$$$$$$$$$$-----$$''''''''''''''''''''''''''''''''''''''''''''''''''''''''''''''''''''''''''''''''''''''''''''''''''''''''''''''''''''''''''''''''''''''''''''''''''''''''''''''''''''''''",
"$................................%.....$......#*********---;-&-$$$$$$$$$$$$$$$$$$-;-&---''''''''''''''''''''''''''''''''''''''''''''''''''''''''''''''''''''''''''''''''''''''''''''''''''''''''''''''''''''''''''''''''''''''''''''''''''''''''''''''''''''''''",
"$...$.................$................$......#*###**###$$---&-$$$$$$$$$$$$$$$$$$-;---$$''''''''''''''''''''''''''''''''''''''''''''''''''''''''''''''''''''''''''''''''''''''''''''''''''''''''''''''''''''''''''''''''''''''''''''''''''''''''''''''''''''''''",
"$...........%.....@............$....@..$.....##*..#**#..$--;-&-$$$$$$$$$$$$$$$$$$-;-&--$''''''''''''''''''''''''''''''''''''''''''''''''''''''''''''''''''''''''''''''''''''''''''''''''''''''''''''''''''''''''''''''''''''''''''''''''''''''''''''''''''''''''",
"$............$.......%.....%...........$....#***...##...$$---&-$$$$$$$$$$$$$$$$$$-;---$$''''''''''''''''''''''''''''''''''''''''''''''''''''''''''''''''''''''''''''''''''''''''''''''''''''''''''''''''''''''''''''''''''''''''''''''''''''''''''''''''''''''''",
"$.@...%............$......$..@.........$....#***........---;-&-$$$$$$$$$$$$$$$$$$-;-&---''''''''''''''''''''''''''''''''''''''''''''''''''''''''''''''''''''''''''''''''''''''''''''''''''''''''''''''''''''''''''''''''''''''''''''''''''''''''''''''''''''''''",
"$.................................%.$..$.....##*........$$---&-$$$$$$$$$$$$$$$$$$-;---$$''''''''''''''''''''''''''''''''''''''''''''''''''''''''''''''''''''''''''''''''''''''''''''''''''''''''''''''''''''''''''''''''''''''''''''''''''''''''''''''''''''''''",
"$..$......$...................$........$......#*........$--;-&-$$$$$$$$$$$$$$$$$$-;-&--$''''''''''''''''''''''''''''''''''''''''''''''''''''''''''''''''''''''''''''''''''''''''''''''''''''''''''''''''''''''''''''''''''''''''''''''''''''''''''''''''''''''''",
"$......................................$......#*........$$---&-$$$$$$$$$$$$$$$$$$-;---$$''''''''''''''''''''''''''''''''''''''''''''''''''''''''''''''''''''''''''''''''''''''''''''''''''''''''''''''''''''''''''''''''''''''''''''''''''''''''''''''''''''''''",
"$.......''''''''.$$$$$$.''''''''.......$''''''''''''''''$$---&-$$$$$$$$$$$$$$$$$$-;---$$''''''''''''''''''''''''''''''''''''''''''''''''''''''''''''''''''''''''''''''''''''''''''''''''''''''''''''''''''''''''''''''''''''''''''''''''''''''''''''''''''''''''",
"$.......''''''''$$%$.$$$''''''''.....$.$''''''''''''''''$--;-&-$$$$$$$$$$$$$$$$$$-;-&--$''''''''''''''''''''''''''''''''''''''''''''''''''''''''''''''''''''''''''''''''''''''''''''''''''''''''''''''''''''''''''''''''''''''''''''''''''''''''''''''''''''''''",
"$...%...''''''''$$$$$$$$''''''''.......$''''''''''''''''$$---&-$$$$$$$$$$$$$$$$$$-;---$$''''''''''''''''''''''''''''''''''''''''''''''''''''''''''''''''''''''''''''''''''''''''''''''''''''''''''''''''''''''''''''''''''''''''''''''''''''''''''''''''''''''''",
"$.....$.''''''''$$.$$$.$''''''''..$....$''''''''''''''''---;-&-$$$$$$$$$$$$$$$$$$-;-&---''''''''''''''''''''''''''''''''''''''''''''''''''''''''''''''''''''''''''''''''''''''''''''''''''''''''''''''''''''''''''''''''''''''''''''''''''''''''''''''''''''''''",
"$.......''''''''$$$$%$$$''''''''.....%.$''''''''''''''''$$---&-$$$$$$$$$$$$$$$$$$-;---$$''''''''''''''''''''''''''''''''''''''''''''''''''''''''''''''''''''''''''''''''''''''''''''''''''''''''''''''''''''''''''''''''''''''''''''''''''''''''''''''''''''''''",
"$..@....''''''''$$$$$$$$''''''''.@.....$''''''''''''''''$--;-&-$$$$$$$$$$$$$$$$$$-;-&--$''''''''''''''''''''''''''''''''''''''''''''''''''''''''''''''''''''''''''''''''''''''''''''''''''''''''''''''''''''''''''''''''''''''''''''''''''''''''''''''''''''''''",
"$.......''''''''$$$.$$$$''''''''.......$''''''''''''''''$$---&-$$$$$$$$$$$$$$$$$$-;---$$''''''''''''''''''''''''''''''''''''''''''''''''''''''''''''''''''''''''''''''''''''''''''''''''''''''''''''''''''''''''''''''''''''''''''''''''''''''''''''''''''''''''",
"$.......''''''''.$$$$$$.''''''''....$..$''''''''''''''''---;-&-$$$$$$$$$$$$$$$$$$-;-&---''''''''''''''''''''''''''''''''''''''''''''''''''''''''''''''''''''''''''''''''''''''''''''''''''''''''''''''''''''''''''''''''''''''''''''''''''''''''''''''''''''''''",
"$......................................$''''''''''''''''$$-----$$$$$$$$$$$$$$$$$$-----$$''''''''''''''''''''''''''''''''''''''''''''''''''''''''''''''''''''''''''''''''''''''''''''''''''''''''''''''''''''''''''''''''''''''''''''''''''''''''''''''''''''''''",
"$..$.@......@..............$......%..@.$''''''''''''''''$-;;;;;------------------;;;;;-$''''''''''''''''''''''''''''''''''''''''''''''''''''''''''''''''''''''''''''''''''''''''''''''''''''''''''''''''''''''''''''''''''''''''''''''''''''''''''''''''''''''''",
"$........$...%..$.....$................$''''''''''''''''--;---&-;;;;;;;;;;;;;;;;-;---&--''''''''''''''''''''''''''''''''''''''''''''''''''''''''''''''''''''''''''''''''''''''''''''''''''''''''''''''''''''''''''''''''''''''''''''''''''''''''''''''''''''''''",
"$....%..............@.....%...@........$''''''''''''''''$-;- -&------------------;- -&-$''''''''''''''''''''''''''''''''''''''''''''''''''''''''''''''''''''''''''''''''''''''''''''''''''''''''''''''''''''''''''''''''''''''''''''''''''''''''''''''''''''''''",
"$...$.............................$....$''''''''''''''''--;---&-&-&-&-&--&-&-&-&-;---&--''''''''''''''''''''''''''''''''''''''''''''''''''''''''''''''''''''''''''''''''''''''''''''''''''''''''''''''''''''''''''''''''''''''''''''''''''''''''''''''''''''''''",
"$...........$....%..$.......$..........$''''''''''''''''$-;&&&&------------------;&&&&-$''''''''''''''''''''''''''''''''''''''''''''''''''''''''''''''''''''''''''''''''''''''''''''''''''''''''''''''''''''''''''''''''''''''''''''''''''''''''''''''''''''''''",
"$$....................................$$''''''''''''''''-$-----$-$-$-$-$$-$-$-$-$-----$-''''''''''''''''''''''''''''''''''''''''''''''''''''''''''''''''''''''''''''''''''''''''''''''''''''''''''''''''''''''''''''''''''''''''''''''''''''''''''''''''''''''''",
"$$$$$$$$$$$$$$$$$$$$$$$$$$$$$$$$$$$$$$$$''''''''''''''''$-$-$-$$-$$$-$$$$$$-$$$-$$-$-$-$''''''''''''''''''''''''''''''''''''''''''''''''''''''''''''''''''''''''''''''''''''''''''''''''''''''''''''''''''''''''''''''''''''''''''''''''''''''''''''''''''''''''",
"                                                                                                        ''''''''''''''''''''''''''''''''''''''''''''''''''''''''''''''''''''''''''''''''''''''''''''''''''''''''''''''''''''''''''''''''''''''''''''''''''''''''",
"                  ,,,,     ,,     ,,,,   ,,,,,     ,,,   ,,,,,    ,,,,   ,,,,,,   ,,,,    ,,,,          ''''''''''''''''''''''''''''''''''''''''''''''''''''''''''''''''''''''''''''''''''''''''''''''''''''''''''''''''''''''''''''''''''''''''''''''''''''''''",
"   ,,            ,,  ,,   ,,,    ,,  ,,      ,,   ,,,,   ,,      ,,          ,,  ,,  ,,  ,,  ,,         ''''''''''''''''''''''''''''''''''''''''''''''''''''''''''''''''''''''''''''''''''''''''''''''''''''''''''''''''''''''''''''''''''''''''''''''''''''''''",
"                 ,,  ,,    ,,        ,,    ,,,   ,, ,,   ,,,,,   ,,,,,      ,,    ,,,,   ,,  ,,         ''''''''''''''''''''''''''''''''''''''''''''''''''''''''''''''''''''''''''''''''''''''''''''''''''''''''''''''''''''''''''''''''''''''''''''''''''''''''",
"         ,,,,,,  ,,  ,,    ,,     ,,,,       ,,  ,,,,,,      ,,  ,,  ,,     ,,   ,,  ,,   ,,,,,         ''''''''''''''''''''''''''''''''''''''''''''''''''''''''''''''''''''''''''''''''''''''''''''''''''''''''''''''''''''''''''''''''''''''''''''''''''''''''",
"   ,,            ,,  ,,    ,,    ,,          ,,     ,,       ,,  ,,  ,,    ,,    ,,  ,,      ,,         ''''''''''''''''''''''''''''''''''''''''''''''''''''''''''''''''''''''''''''''''''''''''''''''''''''''''''''''''''''''''''''''''''''''''''''''''''''''''",
"                  ,,,,    ,,,,   ,,,,,,  ,,,,,      ,,   ,,,,,    ,,,,     ,,     ,,,,    ,,,,          ''''''''''''''''''''''''''''''''''''''''''''''''''''''''''''''''''''''''''''''''''''''''''''''''''''''''''''''''''''''''''''''''''''''''''''''''''''''''",
"                                                                                                        ''''''''''''''''''''''''''''''''''''''''''''''''''''''''''''''''''''''''''''''''''''''''''''''''''''''''''''''''''''''''''''''''''''''''''''''''''''''''"};
