/* XPM */
static char * mines_xpm[] = {
"88 40 14 1",
" 	c #007327",
".	c #522700",
"+	c #FF279B",
"@	c #000000",
"#	c #009B52",
"$	c #2752FF",
"%	c #00BA00",
"&	c #FF2727",
"*	c #00BAFF",
"=	c #FFE000",
"-	c #FFFFFF",
";	c #BABABA",
">	c #737373",
",	c #FF9B27",
" ......  ......  ......  ......  ......  ......  ......  ......  ...... +@@++@@+ ###### ",
"...$$.....%%%%....&&&&......**...+++++....====...------...@@@@..........@++++++@##%# ###",
"..$$$....%%..%%......&&....***...++......==......--..--..@@..@@.........@++++++@########",
"...$$........%%....&&&....****...+++++...=====......--....@@@@..........++++++++## ### #",
"...$$.....%%%%.......&&..**.**.......++..==..==....--....@@..@@.........++++++++####%###",
"...$$....%%......&&..&&..******..++..++..==..==....--....@@..@@.........@++++++@########",
"..$$$$...%%%%%%...&&&&......**....++++....====.....--.....@@@@..........@++++++@### ####",
" ......  ......  ......  ......  ......  ......  ......  ......  ...... +@@++@@+ ###### ",
"...;>...@@@@        @@@@....&...########        *$      #,#,#,##,###,######,###,##,#,#,#",
".;.;>.>.@&&&@@@@@@@@===@.&&.&&.&########        *$      ,#,,,,,#,#,#,#,##,#,#,#,#,,,,,#,",
"..;>>>.. @&&&&&@@=====@ .&,&,,&.########        *$$     #,=====,,,,,,,,,,,,,,,,,,=====,#",
";;>>>>;; @&&&@@  @@===@ ..,==&&.########        ***$    ,,=,,,&,=,=,=,=,,=,=,=,=,=,,,&,,",
">>>>->>>  @@@      @@@  .&,==,&.########   $$   ***$    #,=,@,&,,,,,,,,,,,,,,,,,,=,@,&,#",
"..;>>>..  @          @  &,&,,&&.########  $**$  *$$     ,,=,,,&,&&&&&&&&&&&&&&&&,=,,,&,,",
".;.;>.>.   @        @   &&.&&..&########$$$**$$$*$      #,=&&&&,,,,,,,,,,,,,,,,,,=&&&&,#",
"...;>...   @        @   ....&...########*********$      ##,,,,,##################,,,,,##",
"########################################      $*********,,,=,&,##################,=,&,,,",
"##                                    ##      $*$$$**$$$##,,,&,###### ### ### ###,=,,,##",
"#             >      #           #     #     $$*  $**$  #,,=,&,###### ###########,=,&,,#",
"#         #             >   %      % > #    $***   $$   ##,,,&,## ## ############,=,,,##",
"#            %     #          #        #    $***        ,,,=,&,## ## ###### #####,=,&,,,",
"#   #                 %          >     #     $$*        ##,,,&,### ##############,=,,,##",
"#     %     #      >       #       #   #      $*        #,,=,&,### ##############,=,&,,#",
"#  >                     >             #      $*        ##,,,&,##################,=,,,##",
"#                                %     ###################,,,&,############&#####,=,,,##",
"#   #                 #                ##################,,=,&,############ #####,=,&,,#",
"#           %     >            #    >  ###################,,,&,########### ######,=,,,##",
"#            #       %     %           #################,,,=,&,########### ######,=,&,,,",
"# >   %            #      #  >         ###################,,,&,#############, ###,=,,,##",
"#                                 % #  ##################,,=,&,##;>########## ###,=,&,,#",
"#  #      #                   #        ###################,,,&,#>@@########### ##,=,,,##",
"#                                      #################,,,=,&,############### ##,=,&,,,",
"#                                      ##              ###,,,,,##################,,,,,##",
"#           >              #         # ##  # >    %  > ##,=====,,,,,,,,,,,,,,,,,,=====,#",
"#   %    #   %  #     #                ##              #,,=,,,&,================,=,,,&,,",
"#     #             >     %   >   #    ##    %         ##,=,@,&,,,,,,,,,,,,,,,,,,=,@,&,#",
"#                                    % ##   #     #    #,,=,,,&,&,&,&,&,,&,&,&,&,=,,,&,,",
"#  >        #    %  #       #    >     ##              ##,=&&&&,,,,,,,,,,,,,,,,,,=&&&&,#",
"#                                      ###            ##,#,,,,,#,#,#,#,##,#,#,#,#,,,,,#,",
"#       ########################    #  ##################,#,#,##,###,######,###,##,#,#,#"};
